<svg xmlns="http://www.w3.org/2000/svg" version="1.1" viewBox="-5.0 -10.0 110.0 135.0">
 <path d="m3.9258 26.387c-0.14062-11.59 7.9336-18.727 18.238-22.039 4.2734-1.375 8.5938 0.76953 10.602 4.6641l6.1016 11.824c4.3789 8.4922-2.8555 11.203-6.4453 16.555-0.58594 0.87109-1.0312 1.6055-0.96094 1.7266 7.5781 12.875 16.543 21.84 29.418 29.418 0.60547 0.35547 5.3828-4.1016 5.7031-4.4258 4.0156-4.0391 7.1172-5.7969 12.578-2.9805l11.824 6.1016c3.8906 2.0078 6.0352 6.3281 4.6641 10.602-3.3125 10.305-10.449 18.379-22.039 18.238-27.605-0.33594-69.344-42.074-69.684-69.684zm49.305 11.273c5.0312 0 9.1094 4.0781 9.1094 9.1094 0 3.793 5.7617 3.793 5.7617 0 0-8.2109-6.6562-14.871-14.871-14.871-3.793 0.003906-3.793 5.7617 0 5.7617zm0-13.988c12.758 0 23.098 10.34 23.098 23.098 0 3.793 5.7617 3.793 5.7617 0 0-15.938-12.922-28.859-28.859-28.859-3.793 0.003906-3.793 5.7617 0 5.7617zm0-13.988c20.484 0 37.086 16.602 37.086 37.086 0 3.793 5.7617 3.793 5.7617 0 0-23.664-19.184-42.848-42.848-42.848-3.793 0.003906-3.793 5.7617 0 5.7617zm-40.168 6.7891c-19.094 22.652 47.812 89.559 70.465 70.465 3.0742-2.5898 5.25-6.4727 6.6602-10.855 0.49609-1.5391-0.42188-3.0117-1.8281-3.7383l-11.824-6.1016c-2.543-1.3125-3.1758-0.78906-5.875 1.9219-2.8398 2.8555-8.1914 7.9688-12.68 5.3242-13.824-8.1406-23.328-17.645-31.469-31.469-3.6758-6.2422 7.0195-13.18 7.8867-15.918 0.19141-0.60156 0-1.3945-0.64063-2.6328l-6.1016-11.824c-0.72656-1.4062-2.2031-2.3203-3.7383-1.8281-4.3789 1.4062-8.2617 3.582-10.855 6.6562z" fill-rule="evenodd"/>
<text x="0.0" y="117.5" font-size="5.0" font-weight="bold" font-family="Arbeit Regular, Helvetica, Arial-Unicode, Arial, Sans-serif" fill="#000000">Created by Dwi Budiyanto</text><text x="0.0" y="122.5" font-size="5.0" font-weight="bold" font-family="Arbeit Regular, Helvetica, Arial-Unicode, Arial, Sans-serif" fill="#000000">from Noun Project</text></svg>