<svg xmlns="http://www.w3.org/2000/svg" xmlns:xlink="http://www.w3.org/1999/xlink" version="1.1" x="0px" y="0px" viewBox="0 0 24 30" enable-background="new 0 0 24 24" xml:space="preserve"><g><path d="M16,14.1c-0.3-0.5-1.1-0.7-1.6-0.3l-1.2,0.8c-0.2-0.1-0.7-0.4-1.8-1.9c-1.2-1.8-1.1-2.5-1.1-2.6l1.2-0.8   C12,9,12.2,8.2,11.8,7.7l-1.6-2.4l-0.1-0.1c-0.1,0-0.4-0.3-0.9-0.3S8.1,5.1,7.6,5.5L7.5,5.7C6.4,7.3,6.2,9.2,6.2,9.3v0.1v0.1   c0.5,2.2,1.6,4,2.3,5l0.1,0.2l0.1,0.1c0.8,1.2,2,2.7,3.7,3.9l0.1,0.1c0,0,1.1,0.4,2.5,0.4c0.5,0,0.9,0,1.4-0.1l0.2-0.1   c1.6-1,1.3-2.1,1.3-2.2L16,14.1z M16,18c-0.3,0.1-0.7,0.1-1.1,0.1c-1,0-1.9-0.2-2.1-0.3c-1.6-1.1-2.6-2.4-3.4-3.6l-0.2-0.3   c-0.6-1-1.7-2.6-2.2-4.6c0-0.3,0.3-1.8,1.1-3C9,5.8,9.3,5.9,9.5,5.9L11,8.3c0,0.1,0,0.2,0,0.2L9.9,9.2C9.7,9.3,9.5,9.4,9.4,9.7   c-0.3,0.7,0.1,1.9,1.2,3.5s2,2.4,2.7,2.4c0.3,0,0.5-0.1,0.6-0.3l1.1-0.7c0,0,0.1,0,0.1,0.1l1.6,2.3C16.8,17.2,16.7,17.6,16,18z"/><path d="M12,0.5C5.7,0.5,0.5,5.7,0.5,12S5.7,23.5,12,23.5S23.5,18.3,23.5,12S18.3,0.5,12,0.5z M12,22.5C6.2,22.5,1.5,17.8,1.5,12   S6.2,1.5,12,1.5S22.5,6.2,22.5,12S17.8,22.5,12,22.5z"/></g><text x="0" y="39" fill="#000000" font-size="5px" font-weight="bold" font-family="'Helvetica Neue', Helvetica, Arial-Unicode, Arial, Sans-serif">Created by Iconographer</text><text x="0" y="44" fill="#000000" font-size="5px" font-weight="bold" font-family="'Helvetica Neue', Helvetica, Arial-Unicode, Arial, Sans-serif">from the Noun Project</text></svg>